<svg width="42" height="48" viewBox="0 0 42 48" fill="none" xmlns="http://www.w3.org/2000/svg">
<path d="M21 7.17761C21 10.5894 18.0152 13.3552 14.3333 13.3552C10.6514 13.3552 7.66667 10.5894 7.66667 7.17761C7.66667 3.76581 10.6514 1 14.3333 1C18.0152 1 21 3.76581 21 7.17761ZM21 7.17761C21 10.5894 23.9848 13.3552 27.6667 13.3552C31.3486 13.3552 34.3333 10.5894 34.3333 7.17761C34.3333 3.76581 31.3486 1 27.6667 1C23.9848 1 21 3.76581 21 7.17761ZM21 29.417C21 32.8288 18.0152 35.5946 14.3333 35.5946C10.6514 35.5946 7.66667 32.8288 7.66667 29.417C7.66667 26.0052 10.6514 23.2394 14.3333 23.2394C18.0152 23.2394 21 26.0052 21 29.417ZM21 29.417C21 32.8288 23.9848 35.5946 27.6667 35.5946C31.3486 35.5946 34.3333 32.8288 34.3333 29.417C34.3333 26.0052 31.3486 23.2394 27.6667 23.2394C23.9848 23.2394 21 26.0052 21 29.417ZM14.3333 18.2973C14.3333 21.7091 11.3486 24.4749 7.66667 24.4749C3.98477 24.4749 1 21.7091 1 18.2973C1 14.8855 3.98477 12.1197 7.66667 12.1197C11.3486 12.1197 14.3333 14.8855 14.3333 18.2973ZM14.3333 18.2973C14.3333 21.7091 17.3181 24.4749 21 24.4749C24.6819 24.4749 27.6667 21.7091 27.6667 18.2973M14.3333 18.2973C14.3333 14.8855 17.3181 12.1197 21 12.1197C24.6819 12.1197 27.6667 14.8855 27.6667 18.2973M27.6667 18.2973C27.6667 21.7091 30.6514 24.4749 34.3333 24.4749C38.0152 24.4749 41 21.7091 41 18.2973C41 14.8855 38.0152 12.1197 34.3333 12.1197C30.6514 12.1197 27.6667 14.8855 27.6667 18.2973ZM27.6667 40.5367C27.6667 43.9485 24.6819 46.7143 21 46.7143C17.3181 46.7143 14.3333 43.9485 14.3333 40.5367C14.3333 37.1249 17.3181 34.3591 21 34.3591C24.6819 34.3591 27.6667 37.1249 27.6667 40.5367Z" stroke="#679227" stroke-width="1.5"/>
</svg>
