<svg width="24" height="8" viewBox="0 0 24 8" fill="none" xmlns="http://www.w3.org/2000/svg">
<path d="M0 4C0 1.79086 1.79086 0 4 0C6.20914 0 8 1.79086 8 4C8 6.20914 6.20914 8 4 8C1.79086 8 0 6.20914 0 4Z" fill="#ACE754"/>
<path d="M8 4C8 1.79086 9.79086 0 12 0C14.2091 0 16 1.79086 16 4C16 6.20914 14.2091 8 12 8C9.79086 8 8 6.20914 8 4Z" fill="#ACE754"/>
<path d="M16.0006 4.06646C15.9639 1.85763 17.7248 0.0372722 19.9336 0.000580586C22.1424 -0.036111 23.9628 1.72476 23.9995 3.93359C24.0362 6.14243 22.2753 7.96279 20.0665 7.99948C17.8576 8.03617 16.0373 6.2753 16.0006 4.06646Z" fill="#ACE754"/>
</svg>
